<svg width="874" height="376" xmlns="http://www.w3.org/2000/svg" xmlns:xlink="http://www.w3.org/1999/xlink" overflow="hidden"><defs><clipPath id="clip0"><path d="M43 112 917 112 917 488 43 488Z" fill-rule="evenodd" clip-rule="evenodd"/></clipPath><clipPath id="clip1"><path d="M139 149 199 149 199 208 139 208Z" fill-rule="evenodd" clip-rule="evenodd"/></clipPath><clipPath id="clip2"><path d="M139 149 199 149 199 208 139 208Z" fill-rule="evenodd" clip-rule="evenodd"/></clipPath><clipPath id="clip3"><path d="M139 149 199 149 199 208 139 208Z" fill-rule="evenodd" clip-rule="evenodd"/></clipPath><clipPath id="clip4"><path d="M295 149 354 149 354 208 295 208Z" fill-rule="evenodd" clip-rule="evenodd"/></clipPath><clipPath id="clip5"><path d="M295 149 354 149 354 208 295 208Z" fill-rule="evenodd" clip-rule="evenodd"/></clipPath><clipPath id="clip6"><path d="M295 149 354 149 354 208 295 208Z" fill-rule="evenodd" clip-rule="evenodd"/></clipPath><clipPath id="clip7"><path d="M450 149 510 149 510 208 450 208Z" fill-rule="evenodd" clip-rule="evenodd"/></clipPath><clipPath id="clip8"><path d="M450 149 510 149 510 208 450 208Z" fill-rule="evenodd" clip-rule="evenodd"/></clipPath><clipPath id="clip9"><path d="M450 149 510 149 510 208 450 208Z" fill-rule="evenodd" clip-rule="evenodd"/></clipPath><clipPath id="clip10"><path d="M526 149 586 149 586 208 526 208Z" fill-rule="evenodd" clip-rule="evenodd"/></clipPath><clipPath id="clip11"><path d="M526 149 586 149 586 208 526 208Z" fill-rule="evenodd" clip-rule="evenodd"/></clipPath><clipPath id="clip12"><path d="M526 149 586 149 586 208 526 208Z" fill-rule="evenodd" clip-rule="evenodd"/></clipPath><clipPath id="clip13"><path d="M595 148 655 148 655 207 595 207Z" fill-rule="evenodd" clip-rule="evenodd"/></clipPath><clipPath id="clip14"><path d="M595 148 655 148 655 207 595 207Z" fill-rule="evenodd" clip-rule="evenodd"/></clipPath><clipPath id="clip15"><path d="M595 148 655 148 655 207 595 207Z" fill-rule="evenodd" clip-rule="evenodd"/></clipPath><clipPath id="clip16"><path d="M450 317 510 317 510 376 450 376Z" fill-rule="evenodd" clip-rule="evenodd"/></clipPath><clipPath id="clip17"><path d="M450 317 510 317 510 376 450 376Z" fill-rule="evenodd" clip-rule="evenodd"/></clipPath><clipPath id="clip18"><path d="M450 317 510 317 510 376 450 376Z" fill-rule="evenodd" clip-rule="evenodd"/></clipPath></defs><g clip-path="url(#clip0)" transform="translate(-43 -112)"><g clip-path="url(#clip1)"><g clip-path="url(#clip2)"><g clip-path="url(#clip3)"><path d="M48.3062 19.2979C56.2958 10.325 53.4073 7.19062 53.4073 7.19062 52.424 6.20729 50.8875 6.20729 49.9042 7.19062L26.6115 30.4833 6.33021 49.4125C4.91667 50.826 4.91667 53.1615 6.33021 54.6365 7.74375 56.05 10.0792 56.05 11.5542 54.6365L30.0531 34.3552C30.975 34.7854 33.4333 36.0146 34.1708 35.2156L48.3062 19.2979Z" fill="#BEC8D2" transform="matrix(1.01695 0 -0 1 139 149)"/><path d="M54.575 49.4125 38.4115 34.1094 35.9531 36.875C35.5229 37.3052 34.7854 37.8583 33.6177 37.9198L49.4125 54.6365C50.8875 56.05 53.2229 56.05 54.6365 54.6365 55.9885 53.1615 55.9885 50.826 54.575 49.4125Z" fill="#BEC8D2" transform="matrix(1.01695 0 -0 1 139 149)"/><path d="M22.0635 29.2542C22.0635 29.2542 23.1698 29.0083 24.399 29.1927L24.8906 28.701 29.1313 24.4604C28.9469 23.2927 29.1927 22.125 29.1927 22.125 29.6229 19.4823 28.5781 16.4094 25.4438 13.275 20.2813 8.1125 12.9063 3.31875 12.9063 3.31875L11.8 4.425 24.2146 16.8396C24.5833 17.2083 24.5833 17.7615 24.2146 18.1302 23.8458 18.499 23.2927 18.499 22.924 18.1302L10.5094 5.71562 8.78854 7.43646 21.2031 19.851C21.5719 20.2198 21.5719 20.7729 21.2031 21.1417 20.8344 21.5104 20.2813 21.5104 19.9125 21.1417L7.49792 8.72708 5.77708 10.4479 18.1917 22.8625C18.5604 23.2312 18.5604 23.7844 18.1917 24.1531 17.8229 24.5219 17.2698 24.5219 16.901 24.1531L4.425 11.8 3.31875 12.9063C3.31875 12.9063 8.54271 20.7729 13.2135 25.5052 16.3479 28.6396 19.4208 29.6844 22.0635 29.2542Z" fill="#BEC8D2" transform="matrix(1.01695 0 -0 1 139 149)"/></g></g></g><text fill="#124191" font-family="Nokia Pure Text,Nokia Pure Text_MSFontService,sans-serif" font-weight="300" font-size="21" transform="translate(132.684 250)">Recipes</text><g clip-path="url(#clip4)"><g clip-path="url(#clip5)"><g clip-path="url(#clip6)"><path d="M350.681 171.309 347.485 170.142 347.485 163.443 350.681 162.091 329.048 154.101 302.744 163.32C300.224 164.549 300.163 167.929 300.163 170.695 300.163 171.617 300.285 172.539 300.47 173.399 298.38 174.751 298.319 177.885 298.319 180.528 298.319 182.679 298.81 184.646 300.163 185.875 299.855 186.92 300.04 188.21 300.04 189.747 300.04 192.512 300.777 195.032 303.235 195.893L320.321 202.96 350.558 190.423 347.362 189.255 347.362 182.495 350.558 181.143 345.642 179.299 345.642 173.399 350.681 171.309ZM303.481 167.622 320.567 174.321 345.089 164.426 345.089 169.711 320.567 179.914 303.481 173.153 303.481 167.622ZM344.966 188.825 320.444 198.966 303.297 192.205 303.297 187.411 318.6 193.68 345.027 183.232 344.966 188.825ZM343.245 179.606 318.723 189.747 301.638 182.986 301.638 177.455 319.215 184.461 343.306 174.382 343.306 179.606Z" fill="#BEC8D2"/></g></g></g><text fill="#124191" font-family="Nokia Pure Text,Nokia Pure Text_MSFontService,sans-serif" font-weight="300" font-size="21" transform="translate(260.49 250)">Books Review</text><g clip-path="url(#clip7)"><g clip-path="url(#clip8)"><g clip-path="url(#clip9)"><path d="M49.474 27.9635C49.474 31.0184 46.9975 33.4948 43.9427 33.4948 40.8879 33.4948 38.4115 31.0184 38.4115 27.9635 38.4115 24.9087 40.8879 22.4323 43.9427 22.4323 46.9975 22.4323 49.474 24.9087 49.474 27.9635Z" fill="#BEC8D2" transform="matrix(1.01695 0 -0 1 450 149)"/><path d="M17.2083 37.7969 17.2083 37.7969C18.0073 37.7354 18.8062 37.551 19.6052 37.2437 20.8344 36.7521 22.0635 36.5062 23.3542 36.4448 24.6448 36.5062 25.9354 36.7521 27.1031 37.2437 27.8406 37.551 28.6396 37.7354 29.5 37.7969 30.299 37.7354 31.0979 37.551 31.8969 37.2437 33.126 36.7521 34.3552 36.5062 35.6458 36.4448 36.9365 36.5062 38.2271 36.7521 39.3948 37.2437L39.825 37.3667C39.825 37.0594 39.7021 36.8135 39.5792 36.5677L38.35 34.2937 38.35 34.2323 32.1427 22.3094 42.5292 19.6052C44.1885 19.175 45.1719 17.5156 44.7417 15.8562 44.3115 14.1969 42.6521 13.2135 40.9927 13.6438L26.8573 17.3312C25.9354 17.5771 25.1979 18.1917 24.8292 19.0521 24.4604 19.9125 24.4604 20.8958 24.8906 21.6948L28.6396 28.9469 14.9344 37.0594C14.8729 37.1208 14.8115 37.1823 14.6885 37.2437L14.8115 37.3052C15.6104 37.551 16.4094 37.7354 17.2083 37.7969Z" fill="#BEC8D2" transform="matrix(1.01695 0 -0 1 450 149)"/><path d="M51.625 41.2385C50.4573 40.7469 49.2281 40.501 47.9375 40.4396L47.9375 40.4396C46.6469 40.501 45.4177 40.7469 44.25 41.2385 43.451 41.5458 42.6521 41.7302 41.7917 41.7917L41.7917 41.7917C40.9312 41.7302 40.1323 41.5458 39.3333 41.2385 38.1656 40.7469 36.9365 40.501 35.6458 40.4396L35.6458 40.4396C34.3552 40.501 33.126 40.7469 31.9583 41.2385 31.1594 41.5458 30.3604 41.7302 29.5 41.7917 28.6396 41.7302 27.8406 41.5458 27.0417 41.2385 25.874 40.7469 24.6448 40.501 23.3542 40.4396L23.3542 40.4396C22.0635 40.501 20.8344 40.7469 19.6667 41.2385 18.8677 41.5458 18.0687 41.7302 17.2083 41.7917 16.3479 41.7302 15.549 41.5458 14.75 41.2385 13.5823 40.7469 12.3531 40.501 11.0625 40.4396L11.0625 40.4396C9.77187 40.501 8.54271 40.7469 7.375 41.2385 6.57604 41.5458 5.77708 41.7302 4.91667 41.7917L4.91667 45.4792C6.20729 45.4177 7.43646 45.1719 8.60417 44.6802 9.40312 44.3729 10.2021 44.1271 11.0625 44.1271 11.9229 44.1885 12.7219 44.3729 13.5208 44.6802 14.6885 45.1719 15.9177 45.4177 17.2083 45.4792L17.2083 45.4792C18.499 45.4177 19.7281 45.1719 20.8958 44.6802 21.6948 44.3729 22.4937 44.1271 23.3542 44.1271 24.2146 44.1885 25.0135 44.3729 25.8125 44.6802 26.9802 45.1719 28.2094 45.4177 29.5 45.4792 30.7906 45.4177 32.0198 45.1719 33.1875 44.6802 33.9865 44.3729 34.7854 44.1271 35.6458 44.1271 36.5062 44.1885 37.3052 44.3729 38.1042 44.6802 39.2719 45.1719 40.501 45.4177 41.7917 45.4792L41.7917 45.4792C43.0823 45.4177 44.3115 45.1719 45.4792 44.6802 46.2781 44.3729 47.0771 44.1271 47.9375 44.1271 48.7979 44.1885 49.5969 44.3729 50.3958 44.6802 51.5635 45.1719 52.7927 45.4177 54.0833 45.4792L54.0833 41.7917C53.2229 41.7302 52.424 41.5458 51.625 41.2385Z" fill="#BEC8D2" transform="matrix(1.01695 0 -0 1 450 149)"/></g></g></g><text fill="#124191" font-family="Nokia Pure Text,Nokia Pure Text_MSFontService,sans-serif" font-weight="300" font-size="21" transform="translate(455.123 250)">Swim</text><g clip-path="url(#clip10)"><g clip-path="url(#clip11)"><g clip-path="url(#clip12)"><path d="M41.1771 9.52604C41.1771 12.2414 38.9758 14.4427 36.2604 14.4427 33.545 14.4427 31.3437 12.2414 31.3437 9.52604 31.3437 6.81064 33.545 4.60938 36.2604 4.60938 38.9758 4.60938 41.1771 6.81064 41.1771 9.52604Z" fill="#BEC8D2" transform="matrix(1.01695 0 -0 1 526 149)"/><path d="M14.1354 33.4948C8.35833 33.4948 3.6875 38.1656 3.6875 43.9427 3.6875 49.7198 8.35833 54.3906 14.1354 54.3906 19.9125 54.3906 24.5833 49.7198 24.5833 43.9427 24.5833 38.1656 19.9125 33.4948 14.1354 33.4948ZM14.1354 51.9323C9.71042 51.9323 6.14583 48.3677 6.14583 43.9427 6.14583 39.5177 9.71042 35.9531 14.1354 35.9531 18.5604 35.9531 22.125 39.5177 22.125 43.9427 22.125 48.3677 18.5604 51.9323 14.1354 51.9323Z" fill="#BEC8D2" transform="matrix(1.01695 0 -0 1 526 149)"/><path d="M44.8646 33.4948C39.0875 33.4948 34.4167 38.1656 34.4167 43.9427 34.4167 49.7198 39.0875 54.3906 44.8646 54.3906 50.6417 54.3906 55.3125 49.7198 55.3125 43.9427 55.3125 38.1656 50.6417 33.4948 44.8646 33.4948ZM44.8646 51.9323C40.4396 51.9323 36.875 48.3677 36.875 43.9427 36.875 39.5177 40.4396 35.9531 44.8646 35.9531 49.2896 35.9531 52.8542 39.5177 52.8542 43.9427 52.8542 48.3677 49.2896 51.9323 44.8646 51.9323Z" fill="#BEC8D2" transform="matrix(1.01695 0 -0 1 526 149)"/><path d="M34.2323 24.4604C34.724 24.9521 35.3385 25.1979 35.9531 25.1979L43.0208 25.1979C44.3729 25.1979 45.4792 24.0917 45.4792 22.7396 45.4792 21.3875 44.3729 20.2813 43.0208 20.2813L36.9979 20.2813C36.9979 20.2813 29.9917 13.2135 29.8687 13.1521 28.3323 11.8 25.9969 11.9844 24.6448 13.5208L16.2865 23.0469C14.9344 24.5833 15.1187 26.9187 16.5938 28.2708 16.9625 28.5781 17.3312 28.824 17.7615 28.9469L17.7615 28.9469 26.9802 32.6344 26.9802 43.8812C26.9802 45.2333 28.0865 46.3396 29.4385 46.3396 30.7906 46.3396 31.8969 45.2333 31.8969 43.8812L31.8969 30.975C31.8969 29.9917 31.2823 29.0698 30.4219 28.701L23.6 25.8125 29.1927 19.4208 34.2323 24.4604Z" fill="#BEC8D2" transform="matrix(1.01695 0 -0 1 526 149)"/></g></g></g><text fill="#124191" font-family="Nokia Pure Text,Nokia Pure Text_MSFontService,sans-serif" font-weight="300" font-size="21" transform="translate(615.913 250)">Bike</text><g clip-path="url(#clip13)"><g clip-path="url(#clip14)"><g clip-path="url(#clip15)"><path d="M55.0052 17.3927C55.0052 20.1081 52.8039 22.3094 50.0885 22.3094 47.3731 22.3094 45.1719 20.1081 45.1719 17.3927 45.1719 14.6773 47.3731 12.476 50.0885 12.476 52.8039 12.476 55.0052 14.6773 55.0052 17.3927Z" fill="#BEC8D2" transform="matrix(1.01695 0 -0 1 595 148)"/><path d="M39.8865 18.1302 39.8865 18.1302C31.0979 15.6719 22.924 19.6052 18.8062 21.6948L18.8062 21.6948C16.9625 22.6167 15.6719 24.4604 15.6719 26.6729L15.6719 36.9979 5.40833 41.8531C4.17917 42.4063 3.6875 43.8812 4.24062 45.1104 4.67083 45.9708 5.53125 46.524 6.45313 46.524 6.82188 46.524 7.19062 46.4625 7.49792 46.2781L19.175 40.7469C20.0354 40.3167 20.5885 39.4562 20.5885 38.5344L20.5885 29.5615 27.226 34.3552 22.7396 42.8979C22.125 44.1271 22.5552 45.6021 23.7844 46.2167 24.1531 46.401 24.5219 46.524 24.9521 46.524 25.8125 46.524 26.6729 46.0323 27.1031 45.2333L32.6344 34.7854C33.1875 33.6792 32.8802 32.3271 31.8969 31.651L26.9802 28.1479 39.0875 28.1479 39.0875 44.1271C39.0875 45.4792 40.1937 46.5854 41.5458 46.5854 42.8979 46.5854 44.0042 45.4792 44.0042 44.1271L44.0042 22.924C43.9427 20.5271 42.1604 18.499 39.8865 18.1302Z" fill="#BEC8D2" transform="matrix(1.01695 0 -0 1 595 148)"/></g></g></g><text fill="#124191" font-family="Nokia Pure Text,Nokia Pure Text_MSFontService,sans-serif" font-weight="300" font-size="21" transform="translate(772.779 250)">Run</text><g clip-path="url(#clip16)"><g clip-path="url(#clip17)"><g clip-path="url(#clip18)"><path d="M30.7292 20.2813C30.7292 20.9601 30.1788 21.5104 29.5 21.5104 28.8211 21.5104 28.2708 20.9601 28.2708 20.2813 28.2708 19.6024 28.8211 19.0521 29.5 19.0521 30.1788 19.0521 30.7292 19.6024 30.7292 20.2813Z" fill="#BEC8D2" transform="matrix(1.01695 0 -0 1 450 317)"/><path d="M30.7292 44.8646C30.7292 45.5434 30.1788 46.0938 29.5 46.0938 28.8211 46.0938 28.2708 45.5434 28.2708 44.8646 28.2708 44.1857 28.8211 43.6354 29.5 43.6354 30.1788 43.6354 30.7292 44.1857 30.7292 44.8646Z" fill="#BEC8D2" transform="matrix(1.01695 0 -0 1 450 317)"/><path d="M43.0208 31.9583C43.0208 32.6372 42.4705 33.1875 41.7917 33.1875 41.1128 33.1875 40.5625 32.6372 40.5625 31.9583 40.5625 31.2795 41.1128 30.7292 41.7917 30.7292 42.4705 30.7292 43.0208 31.2795 43.0208 31.9583Z" fill="#BEC8D2" transform="matrix(1.01695 0 -0 1 450 317)"/><path d="M18.4375 31.9583C18.4375 32.6372 17.8872 33.1875 17.2083 33.1875 16.5295 33.1875 15.9792 32.6372 15.9792 31.9583 15.9792 31.2795 16.5295 30.7292 17.2083 30.7292 17.8872 30.7292 18.4375 31.2795 18.4375 31.9583Z" fill="#BEC8D2" transform="matrix(1.01695 0 -0 1 450 317)"/><path d="M30.7292 23.3542 28.2708 23.3542 28.2708 31.9583C28.2708 32.2656 28.3937 32.5729 28.6396 32.8187L34.724 38.9031 36.4448 37.1823 30.7292 31.4667 30.7292 23.3542Z" fill="#BEC8D2" transform="matrix(1.01695 0 -0 1 450 317)"/><path d="M29.5 49.7813C19.974 49.7813 12.2917 42.099 12.2917 32.5729 12.2917 23.0469 19.974 15.3646 29.5 15.3646 39.026 15.3646 46.7083 23.0469 46.7083 32.5729 46.7083 42.099 39.026 49.7813 29.5 49.7813L29.5 49.7813ZM44.0656 17.5771 45.9094 15.7333C46.5854 14.9958 46.5854 13.8896 45.8479 13.1521 45.1719 12.476 44.0042 12.4146 43.2667 13.0906L41.1771 15.2417C38.2271 13.275 34.8469 12.0458 31.3437 11.8L31.3437 9.21875 36.875 9.21875 36.875 5.53125 22.125 5.53125 22.125 9.21875 27.6563 9.21875 27.6563 11.7385C17.8844 12.599 10.0177 20.1583 8.78854 29.9302 7.55937 39.7021 13.275 48.9823 22.5552 52.2396 31.8354 55.4969 42.099 51.9323 47.3229 43.574 52.5469 35.2156 51.0719 24.399 44.0656 17.5771L44.0656 17.5771Z" fill="#BEC8D2" transform="matrix(1.01695 0 -0 1 450 317)"/></g></g></g><text fill="#124191" font-family="Nokia Pure Text,Nokia Pure Text_MSFontService,sans-serif" font-weight="300" font-size="21" transform="translate(422.897 418)">Productivity</text></g></svg>